PathFileType	4	(X/Y/Z)	C:/Users/beibeiliu/ov580/test_trc/User3\sequence.28_training_dense_right.trc
DataRate	CameraRate	NumFrames	NumMarkers	Units	OrigDataRate	OrigDataStartFrame	OrigNumFrames
120	120	20	19	mm	120	64	252
Frame#	Time	ThumbCMC			ThumbMCP			ThumbIP			ThumbTip			IndexMCP			IndexPIP			IndexTip			MiddleMCP			MiddlePIP			MiddleTip			RingMCP			RingPIP			RingTip			PinkyMCP			PinkyPIP			PinkyTip			BackHand1			BackHand2			BackHand3	
		X0	Y0	Z0	X1	Y1	Z1	X2	Y2	Z2	X3	Y3	Z3	X4	Y4	Z4	X5	Y5	Z5	X6	Y6	Z6	X7	Y7	Z7	X8	Y8	Z8	X9	Y9	Z9	X10	Y10	Z10	X11	Y11	Z11	X12	Y12	Z12	X13	Y13	Z13	X14	Y14	Z14	X15	Y15	Z15	X16	Y16	Z16	X17	Y17	Z17	X18	Y18	Z18	
63	0.525	176.502	12.258	16.7246	145.498	18.2496	0.000777847	119.505	13.2655	-17.6004	101.325	-10.1871	-21.7217	163.913	-15.0328	-50.4859	141.323	-2.3986	-73.8774	112.38	7.01649	-67.2261	167.557	-42.3981	-50.0566	154.863	-42.4736	-77.8401	116.166	-32.1423	-90.9697	157.112	-56.317	-33.7548	140.66	-61.3891	-59.6717	112.587	-50.277	-67.2831	140.771	-66.5486	-11.7708	125.46	-70.8493	-29.3437	99.5121	-67.7796	-40.9495	179.111	-51.3043	4.33145	191.323	-49.6436	35.6815	197.83	-19.4997	7.27098	
64	0.533333	179.75	11.507	21.5918	146.229	19.249	-3.32894	121.488	14.0648	-16.9043	105.59	-11.5597	-21.8066	172.283	-12.2556	-51.7243	147.225	-3.45078	-77.3877	119.842	6.75672	-74.0363	173.162	-39.1956	-51.7189	156.81	-43.3324	-79.3012	124.573	-27.4027	-90.916	159.019	-55.3472	-35.856	137.225	-60.1968	-62.4555	114.216	-44.9415	-65.8861	141.245	-63.8677	-15.922	120.168	-67.1186	-32.593	95.6785	-56.9739	-37.6241	178.408	-52.1005	4.45659	191.266	-51.0291	34.6293	199.128	-21.9584	10.0587	
65	0.541667	180.451	11.7342	18.7798	149.296	16.5928	-1.13517	124.51	12.6861	-18.7914	108.22	-9.11068	-21.5002	176.498	-14.9359	-51.5701	154.474	-10.6792	-78.6932	130.674	2.78353	-81.8733	174.957	-45.69	-52.8372	161.245	-44.3061	-79.5765	129.917	-26.3666	-88.6466	159.743	-54.4522	-39.8582	139.252	-55.6664	-62.3324	112.767	-35.9666	-60.8287	139.054	-62.5529	-19.3191	113.964	-59.3881	-32.103	97.784	-40.999	-32.0081	180.394	-52.091	7.16207	191.313	-48.9131	35.9249	200.706	-25.8594	7.63504	
66	0.55	181.617	11.4152	17.5552	150.498	17.2951	-0.670636	124.031	12.2523	-21.8819	109.691	-9.70126	-22.5503	179.074	-17.878	-54.6176	167.511	-10.0752	-81.3484	136.977	4.37323	-88.2333	177.47	-44.3733	-49.7942	163.035	-45.1284	-80.7046	127.339	-26.0878	-83.6375	158.093	-57.4901	-41.9927	133.018	-53.2589	-61.0723	113.679	-31.6098	-53.3943	138.538	-61.4076	-19.9903	116.715	-54.5423	-31.168	99.521	-29.396	-20.9105	179.928	-56.0085	3.8863	189.339	-51.7948	33.8996	201.502	-25.1949	10.6397	
67	0.558333	182.844	11.6057	16.5323	150.363	17.0574	-2.25036	124.991	10.3148	-20.6946	107.005	-5.4546	-24.2958	183.36	-19.9357	-54.7032	172.327	-11.4047	-83.7603	144.633	-0.52331	-92.2946	179.145	-44.3225	-55.4792	162.515	-46.3579	-80.7145	129.682	-26.5771	-80.2936	157.317	-56.2581	-38.5479	133.613	-50.5205	-59.4612	115.633	-26.7892	-44.2967	136.447	-60.9387	-19.7801	114.376	-43.2415	-31.1125	107.007	-22.8485	-14.0116	181.836	-54.463	5.91159	190.483	-54.6138	36.331	203.442	-24.9744	6.72976	
68	0.566667	182.014	10.9043	16.6639	151.467	16.9937	-0.398663	123.155	18.3856	-20.6776	104.738	-0.800763	-26.9025	185.957	-20.225	-52.2114	178.039	-16.9582	-83.253	154.226	-0.488702	-95.9123	178.611	-48.8809	-55.3467	161.404	-46.5132	-80.0154	129.193	-24.5537	-75.1442	154.728	-56.4038	-41.0782	131.157	-45.0569	-57.083	119.945	-19.3527	-34.747	136.617	-57.4177	-22.5079	117.671	-42.1294	-28.4017	118.124	-17.6111	-6.05384	183.905	-53.2218	5.05004	190.192	-53.7204	32.4606	201.606	-28.7689	7.79275	
69	0.575	181.225	5.95076	13.5082	152.093	16.1673	-1.57888	124.438	16.984	-22.8307	105.974	4.34393	-27.4271	190.778	-18.8618	-56.714	182.949	-14.9324	-85.0936	160.568	-2.36142	-99.8173	179.286	-46.3666	-54.9087	160.497	-42.7579	-81.6364	128.01	-23.5833	-68.7634	154.106	-53.2158	-40.9237	129.865	-39.7764	-54.0878	123.308	-20.3169	-24.8037	137.074	-53.0973	-25.1784	115.285	-38.948	-22.9376	123.02	-21.1895	-0.119536	182.476	-56.7873	2.38158	193.511	-50.33	33.9778	204.127	-24.7619	10.5856	
70	0.583333	183.124	6.3698	16.017	152.078	15.3985	-3.56222	126.625	20.7445	-23.2745	106.43	6.69041	-32.2086	191.969	-22.6196	-57.4268	187.429	-15.3253	-85.6093	164.349	-0.486627	-103.678	176.793	-48.2155	-54.2397	160.071	-39.5652	-81.2813	129.727	-19.6986	-65.5814	153.705	-48.1971	-42.177	127.912	-33.9995	-51.2123	128.847	-13.9199	-22.7529	137.264	-50.9648	-26.1115	118.542	-30.7121	-19.7396	129.111	-18.1394	0.874442	181.536	-56.4218	1.42047	190.863	-52.5973	30.3214	205.636	-28.8173	8.14673	
71	0.591667	184.874	5.57025	14.8097	156.516	19.0693	-3.76547	130.81	16.2814	-24.3129	108.799	7.5766	-36.4907	195.744	-21.9019	-54.1772	189.269	-18.9557	-85.6484	174.739	-4.658	-103.421	176.171	-43.0092	-59.2654	155.254	-34.3222	-79.935	130.503	-8.34534	-56.0564	151.591	-45.9851	-43.2894	126.335	-32.4283	-45.3753	132.34	-11.8701	-15.4606	137.83	-51.3359	-22.6167	121.279	-30.0831	-22.654	129.769	-18.4192	1.71149	184.356	-58.47	4.3105	192.415	-52.6529	35.7956	205.24	-27.6928	12.7003	
72	0.6	187.79	5.6284	18.443	158.181	16.9395	-6.31489	134.936	17.2596	-26.1353	114.254	9.21612	-37.5085	196.158	-23.1192	-50.8665	193.494	-18.8308	-85.9974	176.836	-7.80976	-106.111	173.082	-40.2452	-58.1555	147.687	-28.9318	-75.389	131.465	-4.88333	-50.752	153.861	-44.5184	-41.8535	128.325	-24.6231	-45.316	130.617	-12.577	-13.5697	141.64	-51.1165	-23.7165	122.613	-28.1462	-23.272	128.394	-15.6547	3.82777	185.373	-57.6894	3.76411	190.955	-55.967	30.9212	207.007	-27.2644	7.64645	
73	0.608333	188.614	5.51945	14.0134	161.763	22.0079	-5.59271	138.42	20.7018	-25.2792	119.356	15.1177	-38.7872	198.758	-21.1965	-53.4462	198.426	-14.4362	-84.2627	184.153	-7.21765	-106.297	172.476	-36.1001	-58.7992	148.266	-23.6252	-73.2518	132.194	-1.15439	-44.3804	155.926	-43.1963	-42.5805	126.521	-26.9952	-46.4294	128.975	-10.0408	-17.0952	142.357	-53.9429	-25.0886	120.012	-35.7959	-29.5747	121.998	-13.3988	-6.94977	185.571	-54.2997	0.739836	192.825	-53.2021	32.8538	208.119	-26.6998	10.5472	
74	0.616667	189.497	5.77996	14.293	162.572	18.831	-7.56814	141.76	24.3971	-25.3511	121.107	18.5788	-39.2908	196.955	-19.9297	-55.8171	194.444	-14.2115	-87.6784	178.378	-8.07076	-107.524	169.207	-33.8407	-59.8548	142.012	-19.7371	-70.2184	129.738	-0.769532	-40.9143	156.338	-45.8647	-43.7541	126.727	-27.5522	-49.6319	123.834	-10.0779	-26.3869	144.664	-58.3997	-25.8733	120.863	-43.8835	-38.9088	115.787	-18.0508	-26.3999	183.793	-57.1465	-0.696682	193.166	-53.7608	32.004	208.187	-29.0409	4.89359	
75	0.625	191.396	6.76091	12.3842	166.667	23.0632	-5.35606	145.202	30.5967	-24.3315	122.561	27.9726	-42.4831	193.266	-17.6472	-60.0778	187.192	-10.5385	-87.8217	172.483	1.03349	-108.012	169.701	-31.625	-58.2575	140.572	-14.0466	-70.7508	129.403	4.11633	-35.8006	153.405	-46.3978	-48.5844	131.381	-32.3184	-58.4669	120.154	-10.0164	-34.5566	146.334	-60.7538	-23.8421	124.58	-58.8341	-40.5853	105.32	-33.8542	-42.8615	183.445	-56.9266	-1.34856	192.412	-54.0003	29.6714	210.277	-28.6891	2.96596	
76	0.633333	193.405	7.47436	14.5171	167.135	24.2355	-8.55285	146.682	32.1855	-24.6975	125.773	34.9037	-39.7912	188.911	-17.3898	-56.6295	181.913	-4.2912	-85.8195	157.544	6.41097	-104.496	166.897	-31.2416	-59.2685	138.123	-15.8886	-70.9148	126.659	6.89133	-42.8916	157.138	-45.0844	-45.5713	128.895	-33.1276	-60.3676	115.771	-10.9656	-43.0966	147.183	-59.1736	-23.5808	127.832	-62.7963	-40.4987	105.63	-46.7504	-53.4981	184.929	-52.6065	2.67847	192.304	-57.2152	26.775	209.348	-28.996	8.22374	
77	0.641667	194.511	9.56708	14.5159	169.275	23.7928	-3.06138	150.132	35.0174	-23.2692	128.214	36.8023	-38.3706	186.773	-10.5051	-60.873	171.304	-0.139854	-83.3292	147.304	11.2578	-94.8431	165.516	-32.0261	-58.4098	142.22	-16.2793	-73.8171	119.937	5.01762	-49.5206	154.642	-48.8747	-47.7682	135.497	-36.585	-63.6025	114.94	-14.4385	-55.1541	144.569	-61.525	-20.0504	126.233	-65.6503	-38.6269	103.917	-56.9084	-53.3546	182.931	-51.6668	0.387202	190.251	-55.1102	27.5643	206.044	-29.3841	6.80576	
78	0.65	195.83	10.8389	17.3106	172.694	27.872	-1.00645	150.793	38.498	-27.2072	130.177	34.2132	-39.4772	180.331	-11.212	-54.218	163.504	3.58679	-78.6564	136.814	15.8708	-83.3155	168.852	-32.9499	-54.1934	142.148	-23.9025	-74.8425	117.04	1.60954	-63.1226	157.467	-49.5622	-44.0883	135.052	-44.1276	-64.5803	113.517	-21.7764	-62.2998	144.744	-62.0116	-21.5807	129.517	-68.0407	-35.1087	111.612	-64.4097	-53.6061	185.242	-51.7492	2.26698	195.963	-52.2374	30.4301	206.406	-27.627	6.79684	
79	0.658333	194.658	11.441	16.175	174.027	28.8399	-3.62285	154.478	36.0879	-20.867	134.124	34.7195	-38.3923	174.828	-7.17095	-56.7378	150.596	3.399	-72.7818	129.991	22.3506	-72.2357	170.277	-32.9214	-54.8059	147.056	-26.9778	-77.4156	114.113	-1.79491	-75.7603	162.151	-47.7068	-40.3886	142.105	-46.7746	-67.1136	115.138	-28.8607	-71.6035	145.729	-62.7087	-19.5425	133.625	-64.8382	-37.7876	110.801	-67.4007	-53.8289	185.75	-50.8582	4.49542	195.764	-51.0224	28.6664	207.184	-24.5876	9.13698	
80	0.666667	195.298	11.683	17.0225	172.385	28.9688	-5.80801	153.067	37.2887	-24.2508	133.243	40.3538	-39.6169	169.487	-9.69269	-54.9066	146.878	6.38278	-69.0038	123.376	22.8206	-64.9019	169.016	-34.4451	-55.8253	148.748	-30.8582	-79.9576	120.657	-10.243	-89.8661	162.893	-49.2696	-40.2721	147.098	-49.3546	-65.7648	120.969	-37.1993	-79.9012	147.395	-59.3046	-20.6315	129.428	-65.6925	-38.179	108.603	-64.4703	-54.5256	186.273	-49.2572	3.74253	194.591	-50.4716	29.6761	206.621	-23.5325	8.90546	
81	0.675	193.42	11.9168	16.4389	171.167	28.2554	-3.71451	152.255	37.8641	-24.0804	132.484	34.3693	-37.4661	169.237	-5.66144	-55.0947	144.771	8.3713	-67.0953	119.979	25.102	-63.2249	169.483	-36.6608	-58.5424	151.06	-31.2443	-83.6815	127.661	-15.7809	-100.765	161.221	-50.9973	-42.4976	147.081	-49.8536	-68.8603	120.788	-44.6782	-82.9462	144.35	-59.7926	-22.2776	126.938	-64.601	-37.3631	109.482	-63.5244	-53.3165	185.052	-49.7433	5.49918	193.647	-53.7952	31.5447	204.257	-27.1404	8.14796	
82	0.683333	193.829	13.6621	14.7714	170.431	27.6568	-3.97434	149.57	34.1912	-24.748	129.874	34.7079	-38.1713	167.058	-8.4245	-54.7009	147.223	5.23998	-68.4025	124.421	18.7798	-67.8993	172.71	-34.3199	-56.5656	162.819	-30.0014	-82.0378	136.794	-21.617	-109.922	160.576	-49.7339	-44.1948	146.202	-48.9013	-69.0079	125.449	-45.0733	-83.6415	144.742	-57.8289	-20.4409	124.783	-61.8292	-36.8988	107.879	-58.3297	-51.5924	182.611	-52.2444	0.65678	194.486	-53.0223	27.2718	204.154	-25.824	5.17954	
